<svg id="b61c9108-628c-47be-9dcb-b9522f089694" data-name="Layer 1" xmlns="http://www.w3.org/2000/svg" xmlns:xlink="http://www.w3.org/1999/xlink" viewBox="0 0 609 482.02">
  <defs>
    <linearGradient id="e83c830c-dd01-4d37-acc0-edd1b0216588" x1="203" y1="99.5" x2="214" y2="99.5" gradientTransform="matrix(1, 0, 0, -1, 0, 484)" gradientUnits="userSpaceOnUse">
      <stop offset="0" stop-color="#183866"/>
      <stop offset="1" stop-color="#1a7fc1"/>
    </linearGradient>
    <linearGradient id="b2c6c871-8c52-430c-9490-0f4440d9faaf" x1="229.99" y1="97.5" x2="236" y2="97.5" gradientTransform="matrix(1, 0, 0, -1, 0, 484)" gradientUnits="userSpaceOnUse">
      <stop offset="0"/>
      <stop offset="0.99" stop-opacity="0"/>
    </linearGradient>
    <linearGradient id="e679e80c-7aa3-42d5-ac55-6282218e97b1" x1="247.13" y1="114.83" x2="272.71" y2="102.87" xlink:href="#b2c6c871-8c52-430c-9490-0f4440d9faaf"/>
    <linearGradient id="fc021563-595e-4074-a928-a74719db09ef" x1="178.64" y1="154.83" x2="175.13" y2="155.79" xlink:href="#b2c6c871-8c52-430c-9490-0f4440d9faaf"/>
    <linearGradient id="b07160d1-8f68-4750-9af1-1a9a17bbfbaa" x1="285.72" y1="77.41" x2="199.5" y2="105.57" xlink:href="#b2c6c871-8c52-430c-9490-0f4440d9faaf"/>
    <linearGradient id="be5876ac-8763-4ca1-86f8-7f77d6251430" x1="209.51" y1="111.89" x2="205.54" y2="113.14" xlink:href="#b2c6c871-8c52-430c-9490-0f4440d9faaf"/>
    <linearGradient id="bb11db4c-2742-4fd6-ae18-ff0c68900a28" x1="277.6" y1="129.41" x2="249.86" y2="122.04" xlink:href="#b2c6c871-8c52-430c-9490-0f4440d9faaf"/>
    <linearGradient id="becb63f0-78dd-42b5-9501-7a8a7ce4a1ad" x1="495.75" y1="122.98" x2="-12.67" y2="147.45" gradientTransform="matrix(1, 0, 0, -1, 0, 484)" gradientUnits="userSpaceOnUse">
      <stop offset="0"/>
      <stop offset="1" stop-opacity="0"/>
    </linearGradient>
    <linearGradient id="a3b67eae-125e-4456-9b97-becb34fd422a" x1="212.12" y1="221.5" x2="474.12" y2="221.5" xlink:href="#e83c830c-dd01-4d37-acc0-edd1b0216588"/>
    <linearGradient id="a286d890-aff2-4853-a921-68692b6cc321" x1="311.96" y1="227.02" x2="315.12" y2="214.75" xlink:href="#b2c6c871-8c52-430c-9490-0f4440d9faaf"/>
    <linearGradient id="a9081c6f-a328-4a85-bd87-e9e102aa815f" x1="261.84" y1="243.31" x2="347.17" y2="216.01" xlink:href="#b2c6c871-8c52-430c-9490-0f4440d9faaf"/>
    <linearGradient id="b1a3d529-c9d9-45f3-9892-8fc56fb20c7e" x1="255.53" y1="219.97" x2="254.9" y2="215.14" xlink:href="#b2c6c871-8c52-430c-9490-0f4440d9faaf"/>
    <linearGradient id="ee64bad1-09f5-44ed-9994-718191d3c85e" x1="120.51" y1="53.35" x2="76.18" y2="55.06" xlink:href="#b2c6c871-8c52-430c-9490-0f4440d9faaf"/>
    <linearGradient id="a8cf16fc-7b99-46ec-adf7-b1716a774cb7" x1="130.12" y1="74.48" x2="93.08" y2="75.75" xlink:href="#b2c6c871-8c52-430c-9490-0f4440d9faaf"/>
    <linearGradient id="f579d01c-f75d-4363-9c96-2e48ab5aa8b3" x1="54.83" y1="90.62" x2="53.48" y2="83.94" xlink:href="#b2c6c871-8c52-430c-9490-0f4440d9faaf"/>
    <linearGradient id="a2f63ee0-678a-44a7-8924-e94d22689da0" x1="95.62" y1="381.5" x2="92.52" y2="362.36" xlink:href="#b2c6c871-8c52-430c-9490-0f4440d9faaf"/>
    <linearGradient id="f34fa7dc-463e-4a83-bc41-264245a37e78" x1="222" y1="362" x2="263" y2="362" gradientTransform="matrix(1, 0, 0, -1, 0, 484)" gradientUnits="userSpaceOnUse">
      <stop offset="0" stop-color="#ecc4d7"/>
      <stop offset="0.42" stop-color="#efd4d1"/>
      <stop offset="1" stop-color="#f2eac9"/>
    </linearGradient>
    <linearGradient id="a8497fe8-c437-4906-84e2-2f6d589acfc1" x1="268.63" y1="221" x2="306.63" y2="221" xlink:href="#f34fa7dc-463e-4a83-bc41-264245a37e78"/>
    <linearGradient id="bf5a3556-2b0a-4f06-9910-111d09746c86" x1="322.29" y1="234" x2="352.29" y2="234" xlink:href="#f34fa7dc-463e-4a83-bc41-264245a37e78"/>
    <linearGradient id="eb1c311e-04ef-43d4-933d-b0cd14c1b2a3" x1="455.83" y1="363.18" x2="313.75" y2="268.69" gradientTransform="matrix(1, 0, 0, -1, 0, 484)" gradientUnits="userSpaceOnUse">
      <stop offset="0" stop-color="#362958" stop-opacity="0.5"/>
      <stop offset="1" stop-color="#34313d" stop-opacity="0"/>
    </linearGradient>
    <linearGradient id="a2d6b2b3-178f-4e8c-8fc2-b5f5abd1ef6d" x1="185.66" y1="122.93" x2="184.49" y2="123.36" xlink:href="#b2c6c871-8c52-430c-9490-0f4440d9faaf"/>
  </defs>
  <path d="M583.08,92.21c-21-22.38-37.21-49.1-62.28-67.37-39.37-28.75-96-31.56-142.08-13.49s-81.9,54.47-105.54,95.7c-12.43,21.69-22.2,45.35-40.42,63.08-15.41,15-35.65,24.53-54.85,34.94C147,221.8,117.16,242,97.13,269.76s-29,64.18-16.13,95.45c8.63,21.09,26,37.88,43.83,53.08,21,17.87,43.5,34.6,69.5,45.25C226.85,476.78,263,479.63,298.43,481a1424.71,1424.71,0,0,0,188.32-5.33c41.79-3.95,84.62-10.18,122.25-26.88v-337a100.42,100.42,0,0,1-25.92-19.58Z" transform="translate(0 0)" style="fill: #eff1f7"/>
  <path d="M178.32,202.33s-16.6-2.94-21.25,8.67,0,51.74,0,51.74L219,307Z" transform="translate(0 0)" style="fill: #3f3d56"/>
  <path d="M256.2,379.73l-24.55,7a6.81,6.81,0,0,1-8.38-4.38,6.48,6.48,0,0,1,4.55-8.07l24.53-7a6.79,6.79,0,0,1,8.37,4.37,6.48,6.48,0,0,1-4.52,8.09Z" transform="translate(0 0)" style="fill: #2bd0d0"/>
  <path d="M255,406a11,11,0,1,0-11-11A11,11,0,0,0,255,406Z" transform="translate(0 0)" style="fill: #25233a"/>
  <path d="M253.5,403a5.5,5.5,0,1,0-5.5-5.5A5.5,5.5,0,0,0,253.5,403Z" transform="translate(0 0)" style="fill: #3f3d56"/>
  <path d="M210,395a11,11,0,1,0-11-11A11,11,0,0,0,210,395Z" transform="translate(0 0)" style="fill: #25233a"/>
  <path d="M214,384.5a5.5,5.5,0,1,1-1.61-3.89A5.5,5.5,0,0,1,214,384.5Z" transform="translate(0 0)" style="fill: url(#e83c830c-dd01-4d37-acc0-edd1b0216588)"/>
  <path d="M207,410a11,11,0,1,0-11-11A11,11,0,0,0,207,410Z" transform="translate(0 0)" style="fill: #25233a"/>
  <path d="M216,399.5a5.5,5.5,0,1,1-1.61-3.89A5.5,5.5,0,0,1,216,399.5Z" transform="translate(0 0)" style="fill: #3f3d56"/>
  <path d="M257.08,390.87l-50.78-10a6.5,6.5,0,0,1-5.17-7.64,6.61,6.61,0,0,1,7.78-5.06l50.79,10a6.5,6.5,0,0,1,5.17,7.64,6.61,6.61,0,0,1-7.79,5.08Z" transform="translate(0 0)" style="fill: #2bd0d0"/>
  <path d="M226,310h14v59a7,7,0,1,1-14,0V310Z" transform="translate(0 0)" style="fill: #2bd0d0"/>
  <path d="M231.19,386.71l-24.54,7a6.8,6.8,0,0,1-8.38-4.38,6.49,6.49,0,0,1,4.55-8.08l24.54-7a6.79,6.79,0,0,1,8.37,4.38,6.48,6.48,0,0,1-4.54,8.06Z" transform="translate(0 0)" style="fill: #2bd0d0"/>
  <path d="M236,386.26l-3.12.55A12.64,12.64,0,0,1,230,387l1.3-.22a10.4,10.4,0,0,0,2.51-.76Z" transform="translate(0 0)" style="fill: url(#b2c6c871-8c52-430c-9490-0f4440d9faaf)"/>
  <path d="M261,372.74a6.93,6.93,0,0,1-1.46,4.26L239,372.65a7.18,7.18,0,0,0,1.1-2.46l12.65-3.92a6.14,6.14,0,0,1,2.52-.23,6.43,6.43,0,0,1,2.4.8,6.75,6.75,0,0,1,3.08,4.05,7.18,7.18,0,0,1,.25,1.85Z" transform="translate(0 0)" style="fill: url(#e679e80c-7aa3-42d5-ac55-6282218e97b1)"/>
  <path d="M225.22,371.1a5.58,5.58,0,0,1-.22-1.58V311h5.94v63.07a1.84,1.84,0,0,0,.06.93,9.24,9.24,0,0,0-2.85-.51,17.87,17.87,0,0,0-2.07,0l.42-.1c.27,0-.94-2.09-1.28-3.29Z" transform="translate(0 0)" style="opacity: 0.3100000023841858;isolation: isolate;fill: url(#fc021563-595e-4074-a928-a74719db09ef)"/>
  <path d="M262.29,389.8a6.72,6.72,0,0,1-3.17.8,7.4,7.4,0,0,1-1.33-.13l-22.41-4.41-1.87-.36a6.52,6.52,0,0,1-2.13,1.05l-1.11.32-23,6.66a6.67,6.67,0,0,1-8.25-4.36,5.77,5.77,0,0,0,7.22.4c2.81-1.89,14-4.74,20.34-6.25a7.68,7.68,0,0,0,5.85-6,4.34,4.34,0,0,1,.08-.52c1.06,1.11,3,2.36,6.51,3.42,8.64,2.59,22.66,4.31,22.66,4.31s2.54,2.42.63,5.07Z" transform="translate(0 0)" style="opacity: 0.3100000023841858;isolation: isolate;fill: url(#b07160d1-8f68-4750-9af1-1a9a17bbfbaa)"/>
  <path d="M264,388a7.61,7.61,0,0,1-2,2l2-2Z" transform="translate(0 0)" style="fill: url(#be5876ac-8763-4ca1-86f8-7f77d6251430)"/>
  <path d="M226.3,370.56a6.87,6.87,0,0,0,1.7,3.13c-.21,0-.43.09-.64.15L206.09,380a6.62,6.62,0,0,1-5.05-7.15A6.7,6.7,0,0,1,207.6,367a7.62,7.62,0,0,1,1.35.13l17.35,3.43Z" transform="translate(0 0)" style="fill: url(#bb11db4c-2742-4fd6-ae18-ff0c68900a28)"/>
  <path d="M259,89.41s-.28-20.81-17.07-19-15.52-5.1-22.69-4.34-15.51,7.78-13.12,16.47-6.33,10.62-12.06,17.21,1.35,12,11,18.41-.6,4.78,5.13,15,25.1-2.83,25.1-2.83Z" transform="translate(0 0)" style="fill: #503164"/>
  <path d="M122.66,434.6l11.73.4V341.26S135,317,157.85,314.58,388,282.12,388,282.12s8.22-.87,12.95,14.9,9.34,77.78,9.34,77.78L474,383.38s1.68-109.55-21.3-115.59-323.52,24.76-323.52,24.76S106.86,408.9,122.66,434.6Z" transform="translate(0 0)" style="fill: #2bd0d0"/>
  <path d="M122.66,434.6l11.73.4V341.26S135,317,157.85,314.58,388,282.12,388,282.12s8.22-.87,12.95,14.9,9.34,77.78,9.34,77.78L474,383.38s1.68-109.55-21.3-115.59-323.52,24.76-323.52,24.76S106.86,408.9,122.66,434.6Z" transform="translate(0 0)" style="opacity: 0.19699999690055847;isolation: isolate;fill: url(#becb63f0-78dd-42b5-9501-7a8a7ce4a1ad)"/>
  <path d="M62,303.78S67.74,272,108.14,263.7l285.19-32.64s28-1.16,40.8,6.59,31.09,14.17,38.58,49.22S482,381.81,482,381.81l-7.09,1.1s-10.35-108.44-21.31-115.3-307.4,35.25-307.4,35.25-20.56,4.09-22.36,34.53,0,96.61,0,96.61L62,409.06Z" transform="translate(0 0)" style="fill: #2bd0d0"/>
  <path d="M355.42,243.84c-14.76-1.9-29.64-3.27-44.51-2.72-11.18.44-22.29,2-33.38,3.5l-97.77,13.5c-1.66.23-3.55.6-4.38,2-1.59,2.76,2.15,5.47,5.18,6.52,32.51,11.25,67.24,22.65,100.71,14.63,15.3-3.67,29.51-11.29,45-13.94s31.45-.21,46.93-2.7c14.56-2.35,28.42-9,43.17-9.08,4.53,0,9.19.58,13.48-.84s8.09-5.74,6.9-10.05c-13.85-.48-29.4-3-43-.26s-24.9-.6-38.37-.6Z" transform="translate(0 0)" style="opacity: 0.1899999976158142;isolation: isolate;fill: url(#a3b67eae-125e-4456-9b97-becb34fd422a)"/>
  <path d="M267,259.38l.57,2.11s16.88,10.18,16.78,10.5,70-16.23,70-16.23L356,251Z" transform="translate(0 0)" style="fill: #2bd0d0"/>
  <path d="M267,259.38l.57,2.11s16.88,10.18,16.78,10.5,70-16.23,70-16.23L356,251Z" transform="translate(0 0)" style="fill: url(#a286d890-aff2-4853-a921-68692b6cc321)"/>
  <path d="M268,259.36,330.11,246,356,251.05,285.44,268Z" transform="translate(0 0)" style="fill: #2bd0d0"/>
  <path d="M268,259.36,330.11,246,356,251.05,285.44,268Z" transform="translate(0 0)" style="fill: url(#a9081c6f-a328-4a85-bd87-e9e102aa815f)"/>
  <path d="M247.83,270.48l14.46.52s3.67.22,4.62-2.72-5.89-9.16-6.62-9.28-19.76,5.22-17,10.56Z" transform="translate(0 0)" style="fill: #2bd0d0"/>
  <path d="M247.83,270.48l14.46.52s3.67.22,4.62-2.72-5.89-9.16-6.62-9.28-19.76,5.22-17,10.56Z" transform="translate(0 0)" style="fill: url(#b1a3d529-c9d9-45f3-9892-8fc56fb20c7e)"/>
  <path d="M79,416.06l-7.06,21.67a56.29,56.29,0,0,1-37.88,0L29,415S54.53,423.56,79,416.06Z" transform="translate(0 0)" style="fill: #2bd0d0"/>
  <path d="M79,416.06l-7.06,21.67a56.29,56.29,0,0,1-37.88,0L29,415S54.53,423.56,79,416.06Z" transform="translate(0 0)" style="fill: url(#ee64bad1-09f5-44ed-9994-718191d3c85e)"/>
  <path d="M87,396l-2.28,16.94-5.79,3c-24.65,7.42-50.42-1-50.42-1l-4.44-3.28L22,396Z" transform="translate(0 0)" style="fill: #2bd0d0"/>
  <path d="M87,396l-2.28,16.94-5.79,3c-24.65,7.42-50.42-1-50.42-1l-4.44-3.28L22,396Z" transform="translate(0 0)" style="fill: url(#a8cf16fc-7b99-46ec-adf7-b1716a774cb7)"/>
  <path d="M54.5,401c18,0,32.5-2.69,32.5-6s-14.55-6-32.5-6S22,391.69,22,395,36.55,401,54.5,401Z" transform="translate(0 0)" style="fill: #2bd0d0"/>
  <path d="M54.5,401c18,0,32.5-2.69,32.5-6s-14.55-6-32.5-6S22,391.69,22,395,36.55,401,54.5,401Z" transform="translate(0 0)" style="fill: url(#f579d01c-f75d-4363-9c96-2e48ab5aa8b3)"/>
  <path d="M39.64,265c-3.18-1.51-6.6-2.66-9.36-4.87-5.54-4.5-7-12.25-8.69-19.2S16.5,226.37,9.65,224.38c-2.56-.74-5.57-.45-7.51,1.38s-2.47,5.12-1.91,7.92,1.93,5.31,3,8a36.93,36.93,0,0,1,2.18,19.48c-.87,5.39-2.94,10.85-1.61,16.13,2.25,9,13.47,14.22,13.78,23.46.21,6.23-4.88,12-3.73,18.14.85,4.53,5,8.08,5.23,12.69.25,5.23-4.66,9.65-4.42,14.88s5.42,8.73,8.81,12.84a21.51,21.51,0,0,1,4.83,12.19c.18,2.8-.18,5.69.72,8.33a29.7,29.7,0,0,0,3,5.32,53.38,53.38,0,0,0,3.34,5.65,13.68,13.68,0,0,0,14.72,4.65c1-7,.14-14,.43-21.06.57-13.61,5.69-27.33,2.41-40.54C51.71,329,49.4,324.37,49,319.4c-.36-4.44.81-8.84,1.63-13.22,1.69-9,1.67-18.39,1-27.53-.55-7.26-5.62-10.6-12-13.62Z" transform="translate(0 0)" style="fill: #2bd0d0"/>
  <path d="M59.75,300.77c0,6.06,1.33,12.33-.61,18.08-1.47,4.36-4.7,7.94-6.37,12.23-3.85,9.89,1.33,21,.27,31.56-.44,4.36-1.93,8.54-2.88,12.82a51.26,51.26,0,0,0-.85,16.48,4.15,4.15,0,0,0,.85,2.79,4.21,4.21,0,0,0,2.48,1.56A52.19,52.19,0,0,0,62.71,399a26.62,26.62,0,0,1,3.45-18.59c5.27-8.63,15.52-14.45,17.43-24.36,1.29-6.71-1.72-13.52-1.51-20.35a21.87,21.87,0,0,1,4.49-12.55c2.48-3.23,5.83-5.73,8.14-9.07,5.55-8.07,3.82-18.85,2.17-28.5s-2.61-20.74,3.91-28.05c2.06-2.31,4.75-4,6.62-6.52,4.16-5.5,3.11-14-1.73-18.9S93,225.83,86.46,228a13.79,13.79,0,0,0-7,4.76c-3.32,4.71-2,11.15-.59,16.75,1.24,4.87,2.23,10.49.54,15.39-1.25,3.65-4.44,5.63-7.15,8.18a38.93,38.93,0,0,0-12.5,27.69Z" transform="translate(0 0)" style="fill: #2bd0d0"/>
  <path d="M53.06,354.52c-.94,6.59-2.29,13.24-2.57,19.85V375a1.67,1.67,0,0,1-.11.48,52,52,0,0,0-.87,16.5,6.47,6.47,0,0,0,.66,2.56c0,.28-.07.56-.11.83a13.7,13.7,0,0,1-14.73-4.65A61.2,61.2,0,0,1,32,385.11a28.55,28.55,0,0,1-3-5.32c-.91-2.66-.55-5.54-.73-8.33a21.41,21.41,0,0,0-4.83-12.19c-3.39-4.09-8.58-7.52-8.82-12.84s4.68-9.65,4.43-14.88c-.22-4.62-4.38-8.16-5.23-12.7-1.16-6.13,4-11.9,3.73-18.13-.31-9.24-11.53-14.5-13.79-23.46-1.32-5.29.74-10.75,1.61-16.14a36.85,36.85,0,0,0-2.15-19.46c-1-2.66-2.42-5.16-3-8s-.15-6,1.91-7.93a7.88,7.88,0,0,1,7.51-1.38c6.86,2,10.21,9.66,12,16.61s3.15,14.69,8.69,19.2c2.75,2.23,6.18,3.36,9.36,4.87,6.34,3,11.42,6.36,12,13.55.66,9.15.72,18.5-1,27.54-.82,4.38-2,8.78-1.63,13.22s2.27,8.64,3.52,12.95c.14.48.28,1,.4,1.47,1.67,6.84,1.13,13.75.13,20.73Z" transform="translate(0 0)" style="fill: #30c59b"/>
  <path d="M49.72,394a7.88,7.88,0,0,1-.5-2.49,67.29,67.29,0,0,1,.63-16.05c0-.15,0-.31.08-.46-.17,6.35.38,12.74-.21,19Z" transform="translate(0 0)" style="fill: url(#a2f63ee0-678a-44a7-8924-e94d22689da0)"/>
  <path d="M107.39,251c-1.87,2.47-4.56,4.21-6.62,6.52-6.53,7.3-5.57,18.41-3.92,28.05s3.38,20.43-2.17,28.5c-2.31,3.32-5.68,5.84-8.16,9.07A21.8,21.8,0,0,0,82,335.7c-.21,6.83,2.8,13.64,1.51,20.35-1.92,9.91-12.18,15.74-17.46,24.36A26.67,26.67,0,0,0,62.65,399a51.57,51.57,0,0,1-10.06-2.71,5.48,5.48,0,0,1-2.34-1.42,1.72,1.72,0,0,1-.25-.35,6.31,6.31,0,0,1-.7-2.54,51,51,0,0,1,.89-16.49c0-.16.07-.32.11-.48.94-4.11,2.34-8.14,2.77-12.33a39.85,39.85,0,0,0-.16-8.17c1-7,1.55-13.88-.15-20.67-.12-.49-.26-1-.4-1.46a11.93,11.93,0,0,1,.44-1.27c1.67-4.29,4.91-7.86,6.38-12.22,1.94-5.76.56-12,.61-18.09a39,39,0,0,1,12.43-27.72c2.71-2.55,5.9-4.53,7.16-8.18,1.68-4.9.66-10.52-.54-15.39-1.42-5.6-2.77-12,.59-16.75a13.71,13.71,0,0,1,7-4.76c6.56-2.17,14.4-.81,19.24,4.11s5.87,13.43,1.7,18.9Z" transform="translate(0 0)" style="fill: #30c59b"/>
  <path d="M225.57,146.15s-27.81,4.3-40.68,35-6.18,68.69-5.95,72S218.37,271,229.57,271s13.55-11.23,13.55-11.23l-19.81-8.43,60.17-7h10.81l-6,10s11.75,1.23,19.6,1.51,13.18-15.24,14.05-23-34.66-75.46-40-79.47-19.72-13.81-56.44-7.35Z" transform="translate(0 0)" style="fill: #2bd0d0"/>
  <path d="M258.39,88.78s5,2.83,4.58,12-3.29,22.93-6.15,26.5-12.88,5-12.88,5,5.46,13,9.53,16.32-4.09,15.69-12,11.64S224.33,146,224.33,146s6.62-12.25,4.38-18.69-10.77-29.07-4.38-35.24,20.19-15,34.06-3.27Z" transform="translate(0 0)" style="fill: url(#f34fa7dc-463e-4a83-bc41-264245a37e78)"/>
  <path d="M214.33,190,210,244.05,223.24,251,234,249.12l-13.43-16.5ZM284,187s17.91,42.08,10,57l-6.12-1.16Z" transform="translate(0 0)" style="fill: #fff;opacity: 0.25;isolation: isolate"/>
  <path d="M235.52,258.05s-6.76,5.77-3.74,10.26,6.62,4.36,9.63,2.36,8.91-6.78,15.94-4.59,8.75,3.58,8.75,3.58,3.7-2.32,2.74-4.64-8.32-9.85-10.45-10.82-11,2-11,2-6.51-1.76-11.89,1.83Z" transform="translate(0 0)" style="fill: url(#a8497fe8-c437-4906-84e2-2f6d589acfc1)"/>
  <path d="M295.19,245.6s-6.38.76-8,5-2.19,4.71-2.19,4.71,3.61.7,5.11-1.26,3.06-1.13,3.06-1.13l-.45,2.51s9.8,1.47,14.22-.12a18.34,18.34,0,0,0,6.33-3.45l1.73-4.24s-4.18-3-7.33-3.5-12.48,1.53-12.48,1.53Z" transform="translate(0 0)" style="fill: url(#bf5a3556-2b0a-4f06-9910-111d09746c86)"/>
  <path d="M328.89,290s21.94,16.69,20,39.26-4.82,56.09-4.82,56.09-8.84,3.72-14.7,0S320,330.7,317,325.83,296.67,299,278,297.15Z" transform="translate(0 0)" style="fill: #25233a"/>
  <path d="M219,306.06s10.44,9.89,29.06,13,27.3,5.7,33,21.61,11.15,50.13,12.93,54,9.39,1.87,9.39,1.87,4.29-4.89,4.29-32.11c0-37.95,2.66-45.73-6.91-55.26S282.48,297,282.48,297Z" transform="translate(0 0)" style="fill: #3f3d56"/>
  <path d="M294,396l1.82,14.2h3.41s21.95,1.18,22.63.67-1.05-11.24-9.37-10.94-8.86-2-8.86-2Zm37-9.84L334.52,400,373,394.79s1.36-9.09-10.82-8.19c-3.21.23-5.61,2.46-9.47,2.48s-7.56-1.54-9.51-4.08Z" transform="translate(0 0)" style="fill: #25233a"/>
  <path d="M461.8,212.34,319.56,220a6.25,6.25,0,0,1-6.56-5.92V112.47a7.52,7.52,0,0,1,7.35-7.53L462,102a6.77,6.77,0,0,1,2.63.47,6.69,6.69,0,0,1,2.25,1.45,6.87,6.87,0,0,1,2.11,4.83v96a7.63,7.63,0,0,1-7.2,7.62Z" transform="translate(0 0)" style="fill: #2bd0d0"/>
  <path d="M469.8,212.34,327.55,220a6.25,6.25,0,0,1-6.55-5.93V112.47a7.51,7.51,0,0,1,7.34-7.53L470,102a6.87,6.87,0,0,1,7,6.74v96a7.63,7.63,0,0,1-7.2,7.62Z" transform="translate(0 0)" style="fill: #2bd0d0"/>
  <path d="M469.8,212.34,327.55,220a6.25,6.25,0,0,1-6.55-5.93V112.47a7.51,7.51,0,0,1,7.34-7.53L470,102a6.87,6.87,0,0,1,7,6.74v96a7.63,7.63,0,0,1-7.2,7.62Z" transform="translate(0 0)" style="fill: url(#eb1c311e-04ef-43d4-933d-b0cd14c1b2a3)"/>
  <path d="M427.77,251.14,391.48,255s-11.06-2.23-10.46-3.86,12.16-3.21,12.16-3.21v-65.8c-.1-.15-1.62-2.09-5.79-3.32a20.87,20.87,0,0,0-2.46-.57,7.11,7.11,0,0,1-2.06-.62c-2.48-1.28.26-3.51,4.11-3.61a9.88,9.88,0,0,1,1.8.1h27.91s10.57,3,11.08,17.81,0,59.22,0,59.22Z" transform="translate(0 0)" style="fill: #3a3054"/>
  <path d="M398,251.28,391.32,255s-10.89-2.23-10.3-3.86,12-3.21,12-3.21V182.12a15.16,15.16,0,0,0-5.7-3.32,29.61,29.61,0,0,0-4.46-1.19c-2.44-1.28.26-3.51,4.05-3.61,3.23.45,9.58,4,10,6.07S398,251.28,398,251.28Z" transform="translate(0 0)" style="fill: #51466b"/>
  <path d="M263,389c-.88,1-1.29,1.37-.77.55A6,6,0,0,0,263,389Z" transform="translate(0 0)" style="fill: url(#a2d6b2b3-178f-4e8c-8fc2-b5f5abd1ef6d)"/>
</svg>
